# xmcd CD database file
#
# Track frame offsets:
#	150
#	10167
#	31142
#	48451
#	65691
#	81303
#	91500
#	111809
#	129326
#	153800
#	174816
#	191721
#	212290
#	235908
#	258550
#
# Disc length: 3665 seconds
#
# Revision: 1
# Processed by: cddbd v1.5.1PL0 Copyright (c) Steve Scherf et al.
# Submitted via: CDex 1.51
#
DISCID=b40e4f0f
DTITLE=Nas - Fetus
DYEAR=2001
DGENRE=Rap
TTITLE0=Nas - Nas - Stillmatic (Intro)
TTITLE1=Doo Rags
TTITLE2=Nas - My Way
TTITLE3=Nas - U Gotta Love It
TTITLE4=Nas - No Ideas Original
TTITLE5=Nas - Everybodys Crazy
TTITLE6=Nas - Blaze A 50
TTITLE7=Nas - Purple
TTITLE8=Nas - Drunk By Myself
TTITLE9=Nas - Black Zombies
TTITLE10=Nas - Poppa Was A Player
TTITLE11=Nas - Amerie - Rule
TTITLE12=Nas - My Country
TTITLE13=Nas - What Goes Around
TTITLE14=Nas - Every Ghetto (Bonus Track)
EXTD=YEAR: 2001
EXTT0=
EXTT1=
EXTT2=
EXTT3=
EXTT4=
EXTT5=
EXTT6=
EXTT7=
EXTT8=
EXTT9=
EXTT10=
EXTT11=
EXTT12=
EXTT13=
EXTT14=
PLAYORDER=
